PathFileType	4	(X/Y/Z)	markers_results_mono.trc
DataRate	CameraRate	NumFrames	NumMarkers	Units	OrigDataRate	OrigDataStartFrame	OrigNumFrames
12.500000	12.500000	19	22	m	12.500000	1	3015
Frame#	Time	Nose			Neck			LShoulder			RShoulder			LElbow			RElbow			LWrist			RWrist			LHip			RHip			LKnee			RKnee			LAnkle			RAnkle			LEye			REye			LThumb			LIndex			LPinky			RThumb			RIndex			RPinky
		X1	Y1	Z1	X2	Y2	Z2	X3	Y3	Z3	X4	Y4	Z4	X5	Y5	Z5	X6	Y6	Z6	X7	Y7	Z7	X8	Y8	Z8	X9	Y9	Z9	X10	Y10	Z10	X11	Y11	Z11	X12	Y12	Z12	X13	Y13	Z13	X14	Y14	Z14	X15	Y15	Z15	X16	Y16	Z16	X17	Y17	Z17	X18	Y18	Z18	X19	Y19	Z19	X20	Y20	Z20	X21	Y21	Z21	X22	Y22	Z22

1	0.000000	-0.063623	1.718137	0.413715	-0.048328	1.521834	0.280918	0.004958	1.442263	0.579340	-0.101613	1.601406	-0.017504	0.117789	1.009557	0.639852	-0.014769	1.201528	-0.402610	0.201394	0.876895	0.608132	-0.057529	1.020460	-0.135308	0.038133	0.635040	0.174613	-0.038133	0.760922	-0.174613	-0.142337	0.165925	0.024650	-0.004030	0.408723	-0.324535	-0.194180	-0.223533	-0.089786	-0.373794	0.318563	-0.378834	-0.058734	1.802678	0.519195	-0.057299	1.851356	0.365495	0.202350	0.914708	0.464145	0.199191	0.862149	0.379957	0.194728	0.762266	0.459244	-0.053159	1.076228	0.112295	-0.058595	0.956653	0.192841	-0.063940	0.862371	0.091896
2	0.080000	-0.073515	1.707963	0.424330	-0.052425	1.513898	0.305703	-0.000490	1.421148	0.616708	-0.104360	1.606647	-0.005302	0.108404	0.983920	0.670486	-0.024536	1.188576	-0.413983	0.172871	0.847336	0.634876	-0.059958	0.997404	-0.135601	0.038654	0.627045	0.176747	-0.034110	0.757384	-0.179366	-0.146478	0.150791	0.001245	-0.005929	0.394809	-0.362386	-0.215361	-0.165357	-0.149587	-0.369629	0.332452	-0.432326	-0.068905	1.785007	0.544675	-0.066986	1.844026	0.386132	0.174779	0.900587	0.519158	0.170777	0.830979	0.435995	0.166331	0.732700	0.505534	-0.055457	1.058386	0.092052	-0.061529	0.926967	0.165463	-0.066058	0.848174	0.071326
3	0.160000	-0.083924	1.694749	0.431305	-0.057015	1.505522	0.327209	-0.006727	1.401395	0.649096	-0.107303	1.609650	0.005321	0.096710	0.953712	0.698243	-0.035389	1.181428	-0.423691	0.142249	0.811917	0.657324	-0.064192	0.976831	-0.142390	0.038955	0.616343	0.177475	-0.031139	0.748676	-0.183789	-0.149288	0.148934	-0.009673	-0.006997	0.376120	-0.396450	-0.232710	-0.099946	-0.197301	-0.361174	0.333559	-0.482832	-0.079590	1.766003	0.553526	-0.077427	1.830630	0.389421	0.142089	0.827427	0.512420	0.139337	0.784126	0.419770	0.134538	0.677377	0.500051	-0.059509	1.037956	0.112411	-0.065587	0.908858	0.166882	-0.070758	0.815597	0.084887
4	0.240000	-0.093945	1.677570	0.436577	-0.061438	1.496947	0.345505	-0.012740	1.384216	0.675264	-0.110135	1.609678	0.015746	0.083382	0.921740	0.722251	-0.048101	1.181030	-0.428570	0.113516	0.770761	0.673937	-0.070811	0.958033	-0.156193	0.038589	0.602978	0.177031	-0.029661	0.734425	-0.187271	-0.148238	0.163422	-0.004256	-0.008140	0.354567	-0.422313	-0.241536	-0.031711	-0.224216	-0.349885	0.317709	-0.524710	-0.089500	1.744674	0.608112	-0.086729	1.826022	0.409066	0.113842	0.800582	0.493926	0.110677	0.747300	0.414386	0.105220	0.628751	0.483692	-0.066871	1.005562	0.088423	-0.072994	0.875759	0.141334	-0.077592	0.794228	0.057721
5	0.320000	-0.102475	1.654642	0.444344	-0.064341	1.485754	0.361782	-0.016694	1.367292	0.696647	-0.111988	1.604218	0.026917	0.070892	0.890922	0.743331	-0.061695	1.179314	-0.427414	0.092432	0.725691	0.686042	-0.077542	0.933631	-0.172648	0.037294	0.585459	0.177058	-0.029228	0.714782	-0.189453	-0.142632	0.183504	0.012140	-0.010106	0.331901	-0.437053	-0.240950	0.025361	-0.228854	-0.338698	0.285861	-0.553182	-0.098172	1.716798	0.632076	-0.095109	1.803180	0.439560	0.091840	0.734598	0.525138	0.089757	0.702480	0.449910	0.084673	0.591223	0.520828	-0.073669	0.975243	0.107253	-0.080414	0.832525	0.163647	-0.086328	0.726718	0.063248
6	0.400000	-0.109770	1.626031	0.454631	-0.065105	1.470678	0.374445	-0.018171	1.349283	0.713519	-0.112039	1.592073	0.035371	0.060883	0.861173	0.761884	-0.072867	1.167110	-0.424583	0.080035	0.678773	0.695589	-0.079888	0.896602	-0.187868	0.035474	0.562276	0.178925	-0.028844	0.690194	-0.190806	-0.135699	0.195888	0.031370	-0.011035	0.306309	-0.441631	-0.236621	0.063416	-0.216980	-0.325447	0.241718	-0.568726	-0.104692	1.706975	0.617483	-0.102281	1.780890	0.420144	0.079154	0.684996	0.510540	0.076179	0.633043	0.450208	0.071056	0.520830	0.522529	-0.078434	0.889894	0.090130	-0.084695	0.757021	0.145283	-0.090779	0.649527	0.031666
7	0.480000	-0.116867	1.593543	0.463862	-0.064495	1.452689	0.380379	-0.018525	1.331234	0.724358	-0.110465	1.574144	0.036401	0.053475	0.831377	0.777037	-0.078604	1.140996	-0.426745	0.073445	0.631308	0.703248	-0.075583	0.845891	-0.200736	0.033849	0.533325	0.182497	-0.027801	0.661270	-0.192042	-0.131105	0.193710	0.048758	-0.008501	0.275057	-0.439463	-0.234894	0.083650	-0.196028	-0.306538	0.190948	-0.574281	-0.111461	1.672050	0.696388	-0.108857	1.757555	0.439368	0.072178	0.630643	0.511445	0.069344	0.580386	0.459904	0.065405	0.490584	0.542750	-0.074243	0.834499	0.095653	-0.083092	0.650166	0.146976	-0.087213	0.583789	0.020223
8	0.560000	-0.124353	1.558171	0.470413	-0.063954	1.432225	0.379489	-0.019242	1.313203	0.729191	-0.108667	1.551247	0.029788	0.047558	0.801715	0.788304	-0.079717	1.103453	-0.436468	0.069498	0.584252	0.708736	-0.068013	0.786548	-0.211330	0.032638	0.499765	0.186523	-0.026234	0.628462	-0.192988	-0.128762	0.178049	0.064337	-0.003421	0.239732	-0.432809	-0.236014	0.089078	-0.170093	-0.285261	0.141567	-0.569636	-0.116496	1.682051	0.732791	-0.116187	1.725382	0.445441	0.067662	0.575555	0.490788	0.064098	0.511277	0.434275	0.060839	0.429290	0.562358	-0.067164	0.763226	0.101221	-0.076324	0.571843	0.158758	-0.079777	0.520714	0.017840
9	0.640000	-0.132162	1.523065	0.476069	-0.064323	1.411370	0.375174	-0.020617	1.296156	0.731375	-0.108029	1.526584	0.018974	0.041465	0.776271	0.797082	-0.080359	1.062075	-0.452019	0.065785	0.542343	0.712281	-0.062983	0.729214	-0.220222	0.031471	0.466635	0.190019	-0.024746	0.595646	-0.192816	-0.125900	0.157403	0.079663	0.000780	0.208671	-0.422366	-0.236296	0.084622	-0.140796	-0.269975	0.103307	-0.553111	-0.124530	1.644502	0.722294	-0.122815	1.716822	0.429190	0.062615	0.505286	0.506323	0.060102	0.463321	0.440530	0.056143	0.364188	0.592424	-0.061918	0.712471	0.074920	-0.070154	0.540816	0.123391	-0.073166	0.498679	-0.018741
10	0.720000	-0.139815	1.491688	0.482618	-0.065196	1.392182	0.370436	-0.021865	1.280979	0.735004	-0.108526	1.503384	0.005869	0.034807	0.757277	0.805595	-0.083619	1.022117	-0.472371	0.061336	0.508930	0.714912	-0.062414	0.681194	-0.229372	0.030139	0.438451	0.193048	-0.023608	0.566989	-0.191537	-0.121441	0.138109	0.094293	0.002531	0.186655	-0.409982	-0.235319	0.074256	-0.110902	-0.264593	0.077937	-0.527913	-0.131258	1.635043	0.703082	-0.131386	1.675301	0.371564	0.058377	0.484674	0.442768	0.057391	0.470956	0.395593	0.053643	0.364970	0.633489	-0.062339	0.644682	0.064877	-0.068327	0.517600	0.117627	-0.071549	0.469192	-0.008479
11	0.800000	-0.146637	1.464936	0.489986	-0.065535	1.374763	0.365947	-0.021917	1.267124	0.741634	-0.109153	1.482402	-0.009740	0.029471	0.741382	0.814870	-0.088807	0.983157	-0.497896	0.057550	0.480886	0.717272	-0.063420	0.640972	-0.240992	0.028990	0.415422	0.196147	-0.022565	0.543581	-0.190406	-0.117466	0.118941	0.105588	0.003193	0.169511	-0.399128	-0.237195	0.057923	-0.084615	-0.265752	0.057754	-0.501957	-0.141830	1.530062	0.733112	-0.138213	1.641799	0.430412	0.053965	0.443159	0.451907	0.051635	0.390068	0.500687	0.049179	0.323332	0.635509	-0.063150	0.606938	0.064406	-0.069168	0.480806	0.105203	-0.072453	0.431462	-0.023341
12	0.880000	-0.152140	1.443294	0.497748	-0.064867	1.359963	0.361897	-0.020198	1.255114	0.750078	-0.109535	1.464813	-0.026283	0.027373	0.725804	0.824283	-0.093375	0.946107	-0.525945	0.056412	0.454694	0.719061	-0.063051	0.605651	-0.254624	0.028419	0.397266	0.199343	-0.021337	0.526156	-0.190416	-0.116117	0.099013	0.111519	0.004187	0.153495	-0.391886	-0.244635	0.036586	-0.064768	-0.268383	0.038116	-0.481023	-0.147132	1.519146	0.689034	-0.144310	1.608880	0.433074	0.052666	0.414439	0.448290	0.049104	0.336554	0.497503	0.046753	0.270565	0.642766	-0.063845	0.546354	0.080928	-0.070510	0.408483	0.112017	-0.073443	0.362348	0.013302
13	0.960000	-0.156206	1.425740	0.506124	-0.063771	1.347931	0.359372	-0.017199	1.244875	0.758262	-0.110343	1.450987	-0.039518	0.027471	0.710952	0.832509	-0.096223	0.914700	-0.549946	0.057209	0.430661	0.719992	-0.061539	0.575822	-0.266780	0.028352	0.383342	0.201958	-0.020019	0.513906	-0.191015	-0.116523	0.081380	0.112923	0.005218	0.139931	-0.387314	-0.254682	0.014325	-0.051940	-0.269940	0.021577	-0.465443	-0.150576	1.508569	0.740072	-0.147667	1.601734	0.471146	0.051862	0.356314	0.464316	0.049575	0.302459	0.525714	0.048042	0.255581	0.650341	-0.061549	0.534270	0.053282	-0.068644	0.386425	0.094788	-0.072172	0.333859	-0.046702
14	1.040000	-0.158760	1.410761	0.515064	-0.063282	1.338212	0.359315	-0.014415	1.235986	0.764666	-0.112150	1.440439	-0.046036	0.026445	0.699595	0.838333	-0.098323	0.892612	-0.564306	0.056694	0.412688	0.720461	-0.060962	0.554847	-0.273814	0.028484	0.372831	0.203180	-0.018981	0.504937	-0.190833	-0.116079	0.070020	0.112782	0.005243	0.132880	-0.383602	-0.261544	-0.002944	-0.046691	-0.269879	0.013471	-0.453550	-0.150712	1.541124	0.757057	-0.148124	1.630317	0.468940	0.050650	0.328156	0.435331	0.048953	0.292843	0.444824	0.047640	0.240947	0.642438	-0.062484	0.481254	0.059336	-0.068745	0.350368	0.099129	-0.072623	0.291279	-0.046277
15	1.120000	-0.159551	1.397348	0.523920	-0.063911	1.329930	0.361578	-0.013156	1.227847	0.768890	-0.114666	1.432013	-0.045735	0.022541	0.692526	0.841114	-0.100969	0.879464	-0.568186	0.052940	0.402581	0.720880	-0.062726	0.542969	-0.274395	0.028788	0.364681	0.202644	-0.018506	0.497555	-0.189359	-0.114288	0.064328	0.113306	0.003734	0.133434	-0.380685	-0.262438	-0.012454	-0.050729	-0.268642	0.015672	-0.445640	-0.152195	1.514393	0.761239	-0.149058	1.612357	0.490657	0.046221	0.306696	0.418544	0.044780	0.281031	0.393321	0.043460	0.228840	0.592057	-0.067531	0.403462	0.058577	-0.072304	0.301881	0.102953	-0.075486	0.263166	-0.092055
16	1.200000	-0.158510	1.384661	0.532618	-0.065169	1.321475	0.365481	-0.013065	1.219001	0.771794	-0.117272	1.423949	-0.040832	0.017538	0.686234	0.841362	-0.104563	0.870885	-0.564471	0.047590	0.396258	0.721285	-0.066745	0.534832	-0.269668	0.029519	0.357658	0.200676	-0.018529	0.490787	-0.187443	-0.113780	0.059742	0.113696	0.000878	0.137734	-0.380064	-0.259704	-0.017016	-0.064831	-0.267768	0.025191	-0.443901	-0.149080	1.539670	0.798506	-0.146556	1.626394	0.519639	0.041260	0.301717	0.469200	0.038961	0.261212	0.425412	0.036617	0.191422	0.601148	-0.071123	0.403884	0.063442	-0.077764	0.267647	0.085651	-0.079751	0.259279	-0.158355
17	1.280000	-0.156003	1.371406	0.542324	-0.065971	1.310792	0.370729	-0.012314	1.207252	0.774942	-0.119628	1.414333	-0.033484	0.014495	0.675772	0.840800	-0.108797	0.862188	-0.556834	0.043675	0.386864	0.722116	-0.071867	0.524244	-0.261919	0.030787	0.350668	0.198102	-0.018671	0.483843	-0.186237	-0.116793	0.053265	0.111126	-0.002480	0.140030	-0.382725	-0.257575	-0.021761	-0.086795	-0.268507	0.036194	-0.449651	-0.146072	1.530167	0.857168	-0.142526	1.644343	0.524554	0.037960	0.305673	0.462322	0.036169	0.275552	0.416998	0.032808	0.183411	0.607836	-0.075970	0.402925	0.039412	-0.080806	0.302552	0.064646	-0.083724	0.273434	-0.163601
18	1.360000	-0.152265	1.355949	0.554673	-0.065548	1.296372	0.377847	-0.009647	1.190895	0.779464	-0.121449	1.401850	-0.023771	0.014396	0.659267	0.841066	-0.112994	0.851166	-0.547173	0.042230	0.370932	0.724546	-0.076709	0.509660	-0.252389	0.032271	0.343075	0.195642	-0.018541	0.475692	-0.185952	-0.121697	0.045612	0.104145	-0.005031	0.136847	-0.387873	-0.257610	-0.029176	-0.112753	-0.269026	0.042381	-0.461260	-0.143744	1.484430	0.884663	-0.139946	1.604181	0.548140	0.035015	0.264579	0.426328	0.034301	0.250127	0.427269	0.030813	0.158082	0.597457	-0.082049	0.368629	0.009245	-0.084668	0.313225	0.030884	-0.087925	0.272022	-0.156466
19	1.440000	-0.146868	1.337023	0.570586	-0.064094	1.277923	0.387908	-0.005810	1.169634	0.785320	-0.122377	1.386213	-0.009503	0.015387	0.639044	0.842180	-0.116465	0.838198	-0.534256	0.041413	0.350818	0.729488	-0.080916	0.493888	-0.239628	0.033426	0.334857	0.193280	-0.018052	0.465465	-0.185754	-0.124704	0.039358	0.094462	-0.006373	0.129098	-0.393474	-0.257684	-0.036985	-0.139686	-0.266311	0.042563	-0.475473	-0.135795	1.519055	0.882826	-0.131437	1.644430	0.589733	0.037218	0.301073	0.462557	0.033666	0.232085	0.444416	0.030213	0.140216	0.618723	-0.080649	0.460134	0.063258	-0.088929	0.292431	0.074177	-0.092869	0.234244	-0.087836
